<?xml version="1.0" standalone="no"?>
<!DOCTYPE svg PUBLIC "-//W3C//DTD SVG 20010904//EN"
 "http://www.w3.org/TR/2001/REC-SVG-20010904/DTD/svg10.dtd">
<svg version="1.0" xmlns="http://www.w3.org/2000/svg"
 width="314.000000pt" height="314.000000pt" viewBox="0 0 314.000000 314.000000"
 preserveAspectRatio="xMidYMid meet">
<metadata>
Created by potrace 1.14, written by Peter Selinger 2001-2017
</metadata>
<g transform="translate(0.000000,314.000000) scale(0.100000,-0.100000)"
fill="#000000" stroke="none">
<path d="M1290 3130 c-26 -16 -4 -21 26 -5 23 12 25 15 9 15 -11 0 -27 -4 -35
-10z"/>
<path d="M1636 3120 c-22 -11 -59 -20 -83 -20 -30 0 -45 -5 -50 -15 -3 -9 -13
-15 -22 -13 -9 1 -31 -6 -50 -16 -18 -10 -54 -19 -80 -21 -25 -2 -48 -4 -51
-6 -3 -1 -9 -1 -14 0 -13 3 -46 -31 -40 -41 3 -5 -8 -13 -25 -19 -20 -7 -31
-18 -31 -30 0 -10 -4 -19 -9 -19 -4 0 -22 -13 -39 -30 -18 -16 -37 -30 -42
-30 -6 0 -13 -6 -16 -14 -3 -8 -19 -20 -35 -26 -23 -10 -28 -17 -23 -33 6 -20
6 -20 -11 -4 -16 17 -16 19 -1 36 23 26 20 31 -13 20 -25 -9 -31 -19 -45 -76
-17 -71 -15 -83 10 -63 13 12 17 11 25 -1 7 -12 9 -12 9 1 0 14 21 26 73 44
11 3 17 16 17 33 0 33 15 61 27 50 4 -4 2 -16 -4 -27 -9 -14 -9 -19 1 -23 7
-3 18 8 25 24 13 30 31 39 31 16 0 -7 -5 -18 -12 -25 -19 -19 0 -27 20 -9 27
24 35 21 27 -10 l-6 -28 28 30 c37 39 63 80 63 100 0 13 4 14 21 4 22 -11 21
-11 -6 -35 -37 -32 -21 -55 19 -29 15 10 29 15 33 11 3 -3 13 0 21 6 8 7 37
13 65 14 58 3 97 20 97 43 0 12 3 12 12 3 7 -7 20 -12 30 -12 10 0 18 -4 18
-8 0 -12 52 -9 75 4 11 7 39 15 63 19 23 4 42 11 42 16 0 11 53 -12 63 -28 4
-7 21 -13 36 -13 16 0 34 -7 41 -15 7 -8 23 -15 36 -15 12 0 26 -5 30 -11 5
-8 9 -8 14 1 10 17 31 3 23 -15 -3 -10 2 -15 17 -15 33 0 60 -18 60 -41 0 -16
4 -19 22 -13 21 6 21 6 5 -10 -9 -10 -23 -16 -30 -13 -15 5 -36 -22 -37 -45 0
-11 -8 -18 -19 -18 -10 0 -24 -6 -30 -14 -8 -9 -26 -13 -49 -11 -30 2 -42 -2
-64 -26 -22 -24 -24 -29 -10 -30 11 0 12 -2 4 -6 -6 -2 -35 7 -64 21 -39 20
-54 23 -60 13 -4 -6 -8 -8 -8 -3 0 21 -23 -15 -26 -41 -4 -31 11 -45 42 -37
14 4 23 0 27 -10 4 -9 2 -16 -4 -16 -6 0 -7 -5 -3 -11 3 -6 14 2 25 20 17 28
24 31 69 31 27 0 50 -4 50 -10 0 -5 6 -10 13 -10 7 0 23 -9 35 -20 12 -11 28
-20 37 -20 9 0 29 -10 45 -22 26 -19 30 -28 30 -70 0 -42 -3 -48 -24 -54 -16
-4 -36 1 -55 12 -30 18 -30 18 -52 -10 -12 -15 -28 -25 -35 -22 -8 3 -20 -3
-26 -14 -7 -11 -21 -20 -30 -20 -10 0 -18 -7 -18 -16 0 -13 -3 -14 -15 -4 -8
6 -20 8 -27 4 -7 -5 -25 -7 -41 -5 -19 2 -34 -5 -47 -21 -17 -20 -21 -21 -29
-8 -43 64 -51 65 -51 2 0 -57 -14 -76 -41 -59 -14 9 -21 9 -31 -1 -18 -18 -28
-15 -28 9 0 15 -4 19 -19 14 -11 -3 -22 -1 -26 5 -7 12 -72 3 -91 -12 -6 -4
-42 -8 -80 -7 -78 2 -196 -13 -235 -29 -32 -13 -141 -124 -153 -158 -15 -38 3
-48 57 -32 25 7 57 23 70 35 14 11 35 24 48 28 19 6 16 1 -13 -22 -21 -17 -35
-33 -31 -37 3 -3 4 -6 2 -6 -3 0 -54 -9 -114 -20 -60 -11 -116 -20 -124 -20
-14 0 -15 14 -7 117 6 86 6 134 -4 180 -7 35 -9 74 -6 88 4 17 2 25 -6 25 -10
0 -10 2 -1 8 13 8 13 83 1 75 -5 -2 -8 -12 -8 -21 0 -20 -23 -89 -33 -98 -10
-11 -8 -59 3 -70 6 -6 4 -25 -5 -54 -12 -41 -14 -42 -15 -15 l-1 30 -13 -24
c-8 -14 -11 -42 -8 -74 4 -42 2 -49 -10 -44 -12 4 -17 -7 -21 -54 -4 -32 -2
-70 3 -84 6 -15 10 -41 10 -60 0 -19 5 -37 10 -40 6 -3 10 -13 10 -22 0 -14
-3 -14 -25 1 -13 9 -33 16 -43 16 -36 0 -45 -27 -50 -142 -4 -103 -3 -115 19
-154 25 -47 44 -61 46 -35 1 9 12 60 25 113 23 95 24 96 37 66 10 -22 11 -35
3 -51 -12 -24 -9 -121 6 -178 6 -22 6 -43 0 -53 -6 -11 -5 -16 3 -16 8 0 10
-19 7 -65 -3 -36 -2 -68 3 -71 5 -3 9 3 9 13 0 15 2 16 10 3 6 -10 6 -16 0
-18 -6 -2 -10 -18 -10 -36 0 -21 -7 -37 -21 -46 -59 -42 -56 -35 -35 -71 12
-20 22 -63 26 -113 l7 -81 2 73 c0 39 3 72 6 72 3 0 16 -9 28 -20 12 -12 23
-17 23 -13 1 4 5 20 8 35 12 54 22 27 15 -39 -5 -47 -3 -70 5 -75 7 -5 4 -8
-8 -8 -14 0 -17 -5 -12 -22 3 -13 6 -29 6 -36 0 -16 47 -36 78 -33 13 2 22 -3
22 -11 0 -23 24 -68 37 -68 6 0 9 -9 6 -20 -4 -13 0 -20 9 -20 9 0 23 -23 35
-59 l21 -59 -24 -6 c-13 -4 -24 -11 -24 -17 0 -8 5 -7 15 1 13 10 15 9 15 -11
0 -13 -7 -33 -15 -43 -8 -11 -15 -27 -15 -35 0 -9 13 3 29 27 25 38 29 41 34
23 3 -14 -1 -25 -14 -31 -27 -15 -74 -118 -70 -158 1 -18 -3 -40 -9 -48 -10
-11 -10 -14 -1 -14 8 0 10 -8 6 -21 -5 -14 -2 -25 6 -30 12 -8 12 -10 0 -18
-8 -5 -15 -27 -16 -49 -1 -31 -11 -52 -39 -86 l-37 -46 800 0 800 0 59 60 c32
33 64 60 70 60 7 0 12 4 12 9 0 5 11 12 25 15 14 4 25 13 25 22 0 32 19 2 25
-40 5 -33 2 -50 -14 -77 -12 -19 -21 -37 -21 -41 0 -5 108 -8 240 -8 l240 0
-2 192 c-3 184 -4 193 -23 196 -11 2 -25 11 -32 19 -6 8 -16 12 -22 8 -6 -3
-11 -2 -11 3 0 14 -62 21 -82 10 -12 -6 -18 -5 -18 3 0 13 -190 267 -217 289
-79 66 -110 87 -122 82 -9 -3 -7 5 7 23 23 29 29 69 12 80 -5 3 -10 13 -10 22
0 15 2 14 18 0 18 -16 19 -15 20 20 2 74 5 93 11 93 3 0 7 45 8 99 1 68 6 108
17 129 9 17 16 43 16 57 0 14 11 51 24 83 13 31 27 73 31 92 4 19 23 66 41
105 38 77 40 102 23 236 -8 61 -17 93 -29 104 -18 16 -89 23 -109 11 -15 -10
-14 14 5 65 38 107 22 443 -25 536 -11 21 -25 51 -31 66 -12 33 -29 31 -47 -4
-10 -18 -13 -20 -13 -6 0 9 -6 17 -14 17 -14 0 -30 39 -20 49 5 5 20 -14 27
-33 6 -19 27 6 27 32 -1 31 -40 114 -57 119 -6 2 -13 -6 -15 -18 -2 -12 -10
-25 -18 -27 -13 -5 -13 -3 -1 12 12 15 13 19 1 26 -10 6 -11 12 -2 22 6 8 8
24 5 37 -4 17 -8 19 -14 9 -7 -10 -9 -9 -9 5 0 9 -4 17 -10 17 -5 0 -10 -4
-10 -10 0 -5 -5 -10 -11 -10 -7 0 -9 11 -5 30 3 17 1 30 -4 30 -16 0 -51 33
-61 57 -5 15 -14 21 -24 17 -9 -4 -15 0 -15 9 0 8 6 18 13 20 6 3 0 6 -14 6
-15 1 -32 8 -39 16 -11 14 -31 18 -152 30 -44 5 -56 10 -51 21 6 16 -18 19
-33 4 -7 -7 -18 -2 -34 15 -25 27 -50 33 -50 12 0 -8 -14 -13 -35 -14 -30 -1
-34 1 -24 13 10 12 -9 14 -122 14 -113 -1 -140 -4 -173 -20z m34 -50 c3 -1 -8
-6 -24 -10 -21 -7 -35 -5 -50 5 -19 14 -17 15 24 11 25 -2 47 -5 50 -6z m-269
-129 c-9 -2 -25 -10 -36 -17 -29 -21 -43 -16 -17 5 12 11 22 24 22 31 0 6 4 9
9 5 5 -3 13 0 17 7 5 8 10 6 14 -8 5 -13 2 -20 -9 -23z m-56 19 c-3 -5 -12
-10 -20 -10 -7 0 -16 -11 -19 -25 -4 -16 -13 -25 -26 -25 -12 0 -20 -7 -20
-17 0 -18 -28 -53 -42 -53 -5 0 1 14 13 31 18 26 19 33 8 40 -8 5 -9 9 -3 9 6
0 26 14 44 30 31 28 79 43 65 20z m-120 -20 c3 -5 1 -10 -4 -10 -6 0 -11 5
-11 10 0 6 2 10 4 10 3 0 8 -4 11 -10z m1335 -224 c0 -3 -4 -8 -10 -11 -5 -3
-10 -1 -10 4 0 6 5 11 10 11 6 0 10 -2 10 -4z m51 -132 c-24 -31 -25 -29 -10
15 8 22 15 29 22 22 6 -6 3 -19 -12 -37z m-841 -14 c0 -5 -2 -10 -4 -10 -3 0
-8 5 -11 10 -3 6 -1 10 4 10 6 0 11 -4 11 -10z m880 0 c0 -5 -2 -10 -4 -10 -3
0 -8 5 -11 10 -3 6 -1 10 4 10 6 0 11 -4 11 -10z m-955 -542 c15 -7 24 -17 21
-25 -3 -7 -1 -13 4 -13 6 0 10 -4 10 -10 0 -5 -9 -10 -21 -10 -11 0 -29 -5
-40 -10 -11 -6 -35 -8 -53 -4 -32 5 -34 8 -26 35 5 15 11 33 15 39 8 14 58 13
90 -2z m-540 -58 c-3 -5 -20 -10 -36 -10 -18 0 -28 4 -24 10 3 6 20 10 36 10
18 0 28 -4 24 -10z m-345 -115 c0 -47 -4 -65 -13 -65 -9 0 -14 17 -15 56 -1
59 2 74 19 74 5 0 9 -29 9 -65z m121 13 c-11 -30 -42 -38 -34 -9 3 11 12 22
22 24 9 3 17 5 18 6 1 0 -1 -9 -6 -21z m796 -30 c6 -7 16 -31 23 -53 7 -22 19
-46 28 -52 12 -10 13 -13 2 -13 -10 0 -11 -3 -3 -11 14 -14 7 -36 -20 -66 -19
-21 -19 -24 -4 -41 10 -10 17 -27 17 -38 0 -14 3 -15 8 -6 5 7 16 10 26 6 11
-4 22 0 32 15 25 34 124 26 124 -11 0 -4 -12 -8 -27 -8 -16 0 -41 -7 -57 -15
-15 -8 -33 -12 -39 -8 -6 3 -7 1 -3 -5 5 -8 -2 -12 -18 -12 -14 0 -26 6 -26
13 0 9 -2 9 -9 -1 -4 -8 -11 -13 -15 -12 -8 2 -61 -17 -88 -31 -10 -5 -31 -9
-47 -9 -16 0 -34 -7 -41 -15 -16 -19 -44 -19 -60 0 -20 24 -81 31 -96 11 -7
-10 -15 -13 -18 -7 -13 20 15 63 59 89 29 17 44 34 44 47 1 19 0 19 -17 -2
-10 -14 -33 -25 -59 -29 -33 -5 -43 -11 -43 -25 0 -11 -3 -18 -7 -17 -17 4
-64 -26 -80 -51 -10 -14 -16 -35 -14 -46 2 -11 0 -17 -4 -13 -4 4 -20 -1 -35
-12 -16 -11 -35 -20 -44 -20 -12 0 -16 -8 -14 -27 3 -25 0 -28 -22 -25 -14 1
-29 -4 -35 -11 -14 -19 -85 -10 -85 10 0 12 -3 13 -14 4 -11 -10 -16 -9 -23 2
-9 16 -81 39 -95 31 -22 -14 -5 -26 27 -20 22 4 35 3 35 -4 0 -5 -7 -10 -15
-10 -8 0 -15 -6 -15 -14 0 -23 -22 -31 -32 -12 -5 9 -15 16 -23 16 -14 0 -31
36 -26 58 1 7 -3 11 -9 10 -7 -2 -17 6 -23 17 -7 11 -13 22 -15 25 -2 2 -7 -2
-12 -10 -8 -12 -10 -10 -10 7 0 12 5 25 10 28 12 7 14 45 3 45 -13 0 -16 237
-4 245 15 8 38 -16 47 -49 3 -14 10 -26 15 -26 5 0 9 -8 9 -17 0 -10 5 -25 10
-33 6 -9 7 5 3 43 -4 39 -2 57 6 57 6 0 11 -11 11 -25 0 -23 4 -25 45 -25 30
0 47 -5 53 -16 7 -13 12 -14 29 -4 16 11 26 9 59 -13 43 -27 59 -26 164 3 48
13 121 52 139 74 9 11 19 10 56 -7 38 -18 45 -25 45 -50 0 -16 4 -26 10 -22
14 9 46 84 54 126 10 56 38 79 95 79 27 0 53 -6 58 -12z m-219 -96 c2 -7 -5
-12 -17 -12 -14 0 -19 5 -14 15 6 17 25 15 31 -3z m525 -18 c4 -8 17 -14 28
-14 14 0 18 4 13 13 -6 8 -3 8 9 -1 9 -8 44 -15 79 -17 84 -4 107 -9 145 -28
18 -10 47 -17 65 -17 l32 0 -20 -20 c-24 -25 -148 -50 -244 -50 -67 0 -140 21
-140 40 0 6 -7 10 -15 10 -19 0 -47 67 -39 93 5 16 12 18 42 12 21 -4 41 -13
45 -21z m447 -23 c0 -17 -18 -21 -24 -6 -3 9 0 15 9 15 8 0 15 -4 15 -9z m-72
-111 c-8 -13 -22 -19 -38 -18 -14 2 -24 -1 -23 -7 1 -6 -44 -11 -113 -13 -63
-2 -114 1 -114 6 0 5 52 14 115 21 63 6 124 15 137 21 40 16 50 13 36 -10z
m-978 -195 c8 -29 24 -55 44 -71 17 -15 24 -24 16 -21 -10 3 -16 -2 -17 -14
-1 -15 5 -19 27 -19 16 0 32 -5 35 -11 4 -5 18 -14 32 -20 13 -5 21 -14 18
-19 -7 -12 5 -17 64 -24 82 -11 71 -23 -28 -31 -72 -6 -116 -14 -195 -34 -44
-11 -62 -6 -47 12 6 8 3 24 -10 47 -18 34 -19 35 -25 11 l-7 -25 -9 24 c-6 17
-4 28 11 44 12 13 19 35 19 58 0 37 36 90 45 65 2 -7 8 -9 12 -5 4 4 0 19 -9
33 -16 24 -14 45 3 45 5 0 14 -20 21 -45z m-636 -100 c-4 -8 -8 -15 -10 -15
-2 0 -4 7 -4 15 0 8 4 15 10 15 5 0 7 -7 4 -15z m1042 -90 c-11 -8 -27 -15
-35 -15 -10 1 -7 6 9 15 33 19 50 18 26 0z m-441 -175 c9 -14 61 -12 85 3 15
9 23 9 28 1 4 -7 42 -12 95 -13 49 -1 97 -7 108 -14 13 -8 22 -9 27 -2 8 11
122 17 122 6 0 -32 -209 -68 -287 -50 -21 5 -59 9 -85 9 -43 0 -47 -2 -43 -22
3 -13 12 -28 20 -34 8 -6 15 -19 15 -28 0 -9 5 -16 10 -16 6 0 10 5 10 10 0 6
5 10 11 10 5 0 7 -4 4 -10 -3 -5 -2 -10 4 -10 7 0 7 -8 1 -24 -7 -19 -4 -30
11 -50 11 -14 28 -25 37 -24 39 3 52 -3 53 -24 l2 -23 4 23 c6 29 21 28 35 -4
10 -22 10 -28 -5 -39 -17 -12 -24 -31 -8 -21 5 3 11 -3 14 -13 3 -13 -4 -27
-21 -41 l-25 -22 6 22 c3 12 3 28 0 36 -4 11 -11 9 -31 -11 -35 -35 -49 -32
-43 13 2 16 -24 26 -45 18 -13 -5 -14 -9 -4 -21 11 -13 10 -14 -2 -10 -11 4
-22 -13 -42 -64 -15 -38 -26 -76 -25 -83 3 -25 -1 -38 -12 -38 -7 0 -9 10 -5
25 4 14 2 25 -4 25 -5 0 -10 -6 -11 -12 0 -7 -3 -41 -5 -75 -3 -36 0 -64 6
-68 12 -7 14 -45 2 -45 -4 0 -13 5 -20 12 -9 9 -12 7 -12 -9 0 -11 8 -23 18
-25 15 -4 50 -63 66 -111 5 -15 3 -16 -14 -7 -16 9 -20 7 -21 -7 0 -12 -5 -8
-14 12 -8 17 -14 26 -15 21 0 -5 -7 -3 -15 4 -10 9 -12 16 -5 20 6 4 5 13 -5
26 -14 18 -14 18 -8 -3 4 -18 1 -23 -15 -23 -11 0 -22 -5 -24 -10 -2 -7 -15
-5 -36 5 -35 18 -43 30 -14 23 21 -6 40 12 34 32 -9 27 -39 52 -47 39 -5 -7 2
-20 16 -31 l24 -20 -25 7 c-14 3 -32 7 -40 8 -23 3 -41 24 -34 41 5 13 -2 16
-39 16 -31 0 -47 -5 -51 -15 -3 -8 -16 -15 -28 -14 -21 0 -22 1 -3 8 11 4 27
21 36 37 9 17 23 28 33 26 19 -3 21 9 4 26 -10 10 -10 17 0 32 11 17 10 18
-10 11 -13 -4 -25 -19 -28 -32 -5 -20 -7 -21 -13 -7 -3 10 3 36 15 61 18 37
28 45 62 53 34 7 41 13 43 34 1 16 0 18 -3 7 -9 -30 -28 -13 -38 32 -6 28 -6
45 2 53 8 8 13 0 17 -26 9 -47 26 -35 49 37 23 74 31 84 50 68 12 -10 16 -10
16 -2 0 7 5 9 10 6 6 -3 7 -17 4 -30 -3 -12 -1 -26 5 -29 6 -4 11 -14 11 -22
0 -8 -5 -12 -10 -9 -6 3 -13 -2 -17 -12 -3 -10 -14 -25 -25 -33 -10 -9 -21
-33 -24 -55 l-5 -40 26 49 c20 37 29 46 36 35 6 -10 9 -8 9 11 1 25 1 25 16 5
l16 -20 -2 20 c-4 33 0 41 10 25 13 -21 30 29 30 91 0 38 -4 49 -16 49 -8 0
-12 5 -9 10 3 6 0 10 -8 10 -8 0 -19 6 -25 13 -15 18 -23 208 -10 224 12 15
54 17 63 3z m721 -117 c18 -24 17 -43 -2 -43 -13 0 -15 -7 -11 -29 4 -19 2
-31 -6 -34 -8 -3 -5 -12 9 -28 12 -13 25 -35 29 -49 17 -59 78 -136 98 -123 4
2 -2 15 -15 28 -45 46 -64 71 -71 90 -4 11 12 -1 36 -27 24 -27 46 -48 48 -48
3 0 5 14 4 30 0 17 -5 30 -10 30 -6 0 -28 16 -50 36 -40 35 -40 35 -7 19 17
-8 32 -20 32 -26 0 -6 8 -9 18 -8 31 3 43 -1 37 -12 -4 -5 0 -18 8 -27 8 -9
17 -26 18 -36 2 -11 9 -19 14 -19 6 1 15 -3 21 -8 14 -11 39 15 29 31 -3 5 -1
10 4 10 15 0 14 -37 -1 -43 -17 -5 8 -37 29 -37 8 0 11 -5 8 -11 -5 -7 -15 -5
-31 6 -30 19 -30 7 -3 -42 16 -27 17 -34 5 -24 -23 19 -29 9 -16 -24 7 -20 8
-31 0 -39 -13 -13 -13 -49 0 -41 6 3 10 1 10 -4 0 -6 -4 -11 -10 -11 -5 0 -10
-4 -10 -10 0 -14 53 -12 70 3 8 6 7 3 -3 -9 -9 -11 -17 -29 -17 -38 0 -12 -5
-16 -15 -12 -8 3 -15 1 -15 -5 0 -6 -5 -7 -12 -3 -8 5 -9 -3 -5 -29 3 -21 2
-37 -2 -37 -14 0 -20 53 -9 74 10 18 9 18 -15 0 -22 -17 -23 -21 -11 -35 17
-19 18 -39 2 -39 -9 0 -8 -3 2 -10 11 -7 3 -14 -34 -29 -26 -12 -54 -21 -62
-21 -9 0 -14 -11 -14 -27 l-1 -28 -22 27 -22 27 -20 -29 c-24 -35 -31 -37 -47
-10 -7 11 -21 20 -30 20 -22 0 -23 -8 -2 -31 17 -19 12 -39 -11 -39 -16 0
-155 134 -155 149 0 6 5 11 11 11 5 0 7 -4 4 -10 -3 -5 -1 -10 5 -10 8 0 10
14 6 43 -3 23 -3 34 0 25 3 -10 10 -18 15 -18 12 0 12 23 -1 36 -14 14 38 114
61 114 10 0 21 10 25 23 4 12 12 25 18 29 7 5 5 8 -6 8 -9 0 -19 -6 -21 -12
-3 -7 -5 16 -4 52 0 36 -3 75 -7 88 -6 16 -3 22 8 22 22 0 20 22 -3 46 -19 21
-41 58 -41 69 0 3 9 3 20 0 15 -5 22 0 30 19 5 14 23 37 39 52 16 14 33 39 36
55 7 33 22 37 41 12z m-1236 -84 c0 -5 -4 -9 -10 -9 -5 0 -10 7 -10 16 0 8 5
12 10 9 6 -3 10 -10 10 -16z m1360 11 c0 -5 -2 -10 -4 -10 -3 0 -8 5 -11 10
-3 6 -1 10 4 10 6 0 11 -4 11 -10z m-513 -42 c-3 -8 -6 -5 -6 6 -1 11 2 17 5
13 3 -3 4 -12 1 -19z m548 -56 c-7 -7 -55 39 -55 52 0 5 13 -3 30 -19 16 -16
28 -31 25 -33z m-565 38 c0 -5 -4 -10 -10 -10 -5 0 -10 5 -10 10 0 6 5 10 10
10 6 0 10 -4 10 -10z m41 -19 c24 -22 30 -84 11 -103 -10 -10 -12 -6 -10 22 2
26 -1 35 -12 35 -18 0 -32 29 -24 50 8 19 11 19 35 -4z m-747 -30 c-8 -9 -22
12 -17 26 6 15 7 14 13 -3 4 -10 6 -21 4 -23z m1226 23 c0 -8 -4 -12 -10 -9
-5 3 -10 10 -10 16 0 5 5 9 10 9 6 0 10 -7 10 -16z m-1029 -17 c-10 -9 -11 -8
-5 6 3 10 9 15 12 12 3 -3 0 -11 -7 -18z m-11 -36 c0 -4 -6 -8 -14 -8 -8 0
-12 6 -9 14 5 13 23 9 23 -6z m1140 -11 c0 -5 -4 -10 -10 -10 -5 0 -10 5 -10
10 0 6 5 10 10 10 6 0 10 -4 10 -10z m-610 -22 c0 -19 -2 -20 -10 -8 -13 19
-13 30 0 30 6 0 10 -10 10 -22z m223 -127 c-4 -16 -8 -17 -18 -8 -10 10 -10
13 4 19 9 4 17 7 18 7 0 1 -1 -8 -4 -18z m472 -31 c3 -5 -3 -10 -14 -10 -12 0
-21 5 -21 10 0 6 6 10 14 10 8 0 18 -4 21 -10z m-496 -65 c-7 -18 -16 -32 -21
-29 -4 3 -8 0 -8 -7 0 -7 -3 -9 -7 -6 -3 4 2 16 12 28 12 12 18 33 17 52 -1
26 0 29 9 14 7 -12 7 -27 -2 -52z m506 4 c11 -17 -1 -21 -15 -4 -8 9 -8 15 -2
15 6 0 14 -5 17 -11z m-985 -39 c0 -5 -2 -10 -4 -10 -3 0 -8 5 -11 10 -3 6 -1
10 4 10 6 0 11 -4 11 -10z m5 -91 c11 -17 -1 -21 -15 -4 -8 9 -8 15 -2 15 6 0
14 -5 17 -11z m1615 -49 c0 -5 -2 -10 -4 -10 -3 0 -8 5 -11 10 -3 6 -1 10 4
10 6 0 11 -4 11 -10z m-1574 -36 c-3 -7 4 -28 15 -48 10 -20 16 -36 13 -36
-12 0 -54 51 -49 60 3 5 1 20 -5 34 -9 24 -8 25 10 13 11 -6 18 -17 16 -23z
m406 -51 c10 -21 16 -38 14 -40 -7 -8 -35 10 -30 18 3 6 -1 21 -10 34 -19 29
-20 36 -3 29 6 -3 20 -21 29 -41z m-70 -8 c11 -20 11 -20 -11 -1 -11 11 -21
26 -21 35 0 14 2 14 10 1 6 -8 16 -24 22 -35z m-180 -87 c-4 -4 -9 7 -9 25 -2
30 -2 31 8 8 5 -14 6 -28 1 -33z m333 22 c3 -5 1 -10 -4 -10 -6 0 -11 5 -11
10 0 6 2 10 4 10 3 0 8 -4 11 -10z"/>
<path d="M1460 1249 c0 -5 5 -7 10 -4 6 3 10 8 10 11 0 2 -4 4 -10 4 -5 0 -10
-5 -10 -11z"/>
<path d="M1273 687 c-7 -23 -15 -51 -19 -61 -7 -18 -5 -18 25 3 25 18 29 26
20 37 -8 10 -8 14 0 14 15 0 14 25 -2 38 -10 9 -16 2 -24 -31z"/>
<path d="M1444 702 c-6 -4 -14 -25 -18 -47 -7 -37 -6 -39 8 -19 14 19 32 74
25 74 -2 0 -9 -4 -15 -8z"/>
<path d="M1236 554 c-9 -24 -2 -26 12 -4 7 11 8 20 3 20 -5 0 -12 -7 -15 -16z"/>
<path d="M1135 490 c-3 -5 -2 -10 4 -10 5 0 13 5 16 10 3 6 2 10 -4 10 -5 0
-13 -4 -16 -10z"/>
<path d="M1350 486 c0 -9 5 -16 10 -16 6 0 10 4 10 9 0 6 -4 13 -10 16 -5 3
-10 -1 -10 -9z"/>
<path d="M1234 466 c-3 -9 -11 -13 -17 -9 -7 4 -8 0 -4 -11 4 -10 7 -21 7 -24
0 -4 7 6 15 22 9 16 13 31 10 34 -2 3 -7 -3 -11 -12z"/>
<path d="M1290 389 c0 -5 5 -7 10 -4 6 3 10 8 10 11 0 2 -4 4 -10 4 -5 0 -10
-5 -10 -11z"/>
<path d="M1340 372 c0 -30 2 -32 20 -22 11 6 20 18 20 26 0 9 -5 12 -11 8 -6
-3 -15 0 -20 7 -6 10 -9 4 -9 -19z"/>
<path d="M1331 284 c0 -11 3 -14 6 -6 3 7 2 16 -1 19 -3 4 -6 -2 -5 -13z"/>
<path d="M2052 758 c-15 -15 -16 -74 -2 -83 6 -3 10 -15 10 -26 0 -10 5 -19
10 -19 6 0 10 12 10 26 0 14 4 23 10 19 6 -3 7 -17 4 -31 -4 -14 -2 -24 5 -24
6 0 8 7 5 15 -4 8 -2 15 3 15 8 0 9 22 4 88 -1 7 -5 10 -11 7 -6 -3 -7 1 -4 9
7 19 -26 22 -44 4z m38 -57 c-1 -13 -3 -13 -15 3 -19 26 -19 42 0 26 8 -7 15
-20 15 -29z"/>
<path d="M2000 732 c0 -5 7 -15 15 -22 8 -7 15 -8 15 -2 0 5 -7 15 -15 22 -8
7 -15 8 -15 2z"/>
<path d="M2255 620 c3 -5 8 -10 11 -10 2 0 4 5 4 10 0 6 -5 10 -11 10 -5 0 -7
-4 -4 -10z"/>
<path d="M2291 604 c0 -11 3 -14 6 -6 3 7 2 16 -1 19 -3 4 -6 -2 -5 -13z"/>
<path d="M2012 545 c0 -16 2 -22 5 -12 2 9 2 23 0 30 -3 6 -5 -1 -5 -18z"/>
<path d="M2306 511 c-8 -12 3 -41 15 -41 12 0 12 37 0 45 -5 3 -12 1 -15 -4z"/>
<path d="M2192 499 c2 -7 10 -15 17 -17 8 -3 12 1 9 9 -2 7 -10 15 -17 17 -8
3 -12 -1 -9 -9z"/>
<path d="M2031 473 c0 -7 -13 -24 -28 -39 -24 -22 -25 -24 -5 -15 17 9 22 9
22 -1 0 -8 3 -9 11 -1 6 6 9 23 6 39 -2 16 -5 24 -6 17z"/>
<path d="M2161 436 c-7 -9 -8 -17 -2 -20 5 -3 12 0 14 6 4 10 8 9 16 -2 8 -12
13 -12 23 -2 9 9 9 12 -5 12 -9 0 -17 5 -17 10 0 14 -16 12 -29 -4z"/>
<path d="M2296 405 c-11 -30 -6 -40 11 -22 12 12 14 20 6 28 -7 7 -12 6 -17
-6z"/>
<path d="M2060 390 c0 -5 5 -10 11 -10 5 0 7 5 4 10 -3 6 -8 10 -11 10 -2 0
-4 -4 -4 -10z"/>
<path d="M2200 380 c0 -5 5 -10 11 -10 5 0 7 5 4 10 -3 6 -8 10 -11 10 -2 0
-4 -4 -4 -10z"/>
<path d="M1950 330 c0 -8 12 -23 25 -33 32 -23 32 -18 0 19 -16 18 -25 23 -25
14z"/>
<path d="M1930 280 c0 -13 7 -20 20 -20 18 0 19 3 10 20 -6 11 -15 20 -20 20
-6 0 -10 -9 -10 -20z"/>
<path d="M2200 220 c0 -5 5 -10 11 -10 5 0 7 5 4 10 -3 6 -8 10 -11 10 -2 0
-4 -4 -4 -10z"/>
<path d="M1320 3099 c0 -5 5 -7 10 -4 6 3 10 8 10 11 0 2 -4 4 -10 4 -5 0 -10
-5 -10 -11z"/>
<path d="M3096 3075 c-11 -8 -15 -15 -9 -15 6 0 16 7 23 15 16 19 11 19 -14 0z"/>
<path d="M1370 3070 c-9 -6 -10 -10 -3 -10 6 0 15 5 18 10 8 12 4 12 -15 0z"/>
<path d="M1126 2928 c-43 -50 -49 -74 -7 -29 16 17 33 31 39 31 13 0 24 28 13
34 -4 3 -25 -13 -45 -36z"/>
<path d="M3070 2930 c0 -5 5 -10 11 -10 5 0 7 5 4 10 -3 6 -8 10 -11 10 -2 0
-4 -4 -4 -10z"/>
<path d="M906 2673 c-10 -11 -7 -43 5 -43 6 0 9 6 6 14 -3 8 -1 16 6 19 7 2 8
5 0 10 -5 4 -13 4 -17 0z"/>
<path d="M891 2604 c0 -11 3 -14 6 -6 3 7 2 16 -1 19 -3 4 -6 -2 -5 -13z"/>
<path d="M847 2532 c-10 -10 -17 -22 -17 -27 0 -5 9 1 21 14 12 12 19 24 17
27 -3 2 -12 -4 -21 -14z"/>
<path d="M1616 2195 c-3 -9 0 -15 9 -15 8 0 15 7 15 15 0 8 -4 15 -9 15 -5 0
-11 -7 -15 -15z"/>
<path d="M233 1945 c0 -33 2 -45 4 -27 2 18 2 45 0 60 -2 15 -4 0 -4 -33z"/>
<path d="M233 1718 c17 -126 19 -159 8 -172 -9 -11 -9 -25 0 -59 6 -25 9 -70
7 -101 l-3 -56 33 0 32 0 -1 103 c0 56 -4 111 -9 122 -7 17 -9 17 -9 3 -1 -10
-5 -18 -10 -18 -10 0 -21 73 -21 141 0 53 -7 79 -22 79 -6 0 -8 -17 -5 -42z"/>
<path d="M2784 1311 c4 -5 3 -11 -1 -14 -5 -2 -2 -2 5 0 8 1 46 4 85 4 69 1
70 2 27 10 -62 11 -122 11 -116 0z"/>
<path d="M0 1234 c0 -27 4 -43 10 -39 13 8 13 85 0 85 -5 0 -10 -21 -10 -46z"/>
<path d="M625 1150 c-3 -5 -2 -10 4 -10 5 0 13 5 16 10 3 6 2 10 -4 10 -5 0
-13 -4 -16 -10z"/>
<path d="M2788 1063 c17 -2 47 -2 65 0 17 2 3 4 -33 4 -36 0 -50 -2 -32 -4z"/>
<path d="M761 834 c0 -11 3 -14 6 -6 3 7 2 16 -1 19 -3 4 -6 -2 -5 -13z"/>
<path d="M762 785 c0 -16 2 -22 5 -12 2 9 2 23 0 30 -3 6 -5 -1 -5 -18z"/>
<path d="M1002 590 c0 -14 2 -19 5 -12 2 6 2 18 0 25 -3 6 -5 1 -5 -13z"/>
<path d="M403 573 c-26 -26 -53 -30 -53 -8 0 12 7 14 28 9 21 -4 24 -3 12 5
-22 16 -50 13 -50 -5 0 -12 -7 -14 -29 -9 -16 3 -32 2 -35 -4 -4 -6 -13 -8
-21 -4 -8 3 -15 1 -15 -3 0 -13 57 -37 110 -46 46 -8 53 -10 80 -21 20 -8 125
-47 127 -47 1 0 0 19 -2 43 -1 23 -3 55 -4 70 -1 24 -4 27 -23 22 -18 -5 -19
-4 -8 4 12 8 12 11 -4 17 -11 4 -21 2 -27 -7 -6 -9 -11 -11 -16 -3 -13 17 -46
11 -70 -13z"/>
<path d="M20 585 c0 -4 7 -13 15 -19 14 -10 14 -16 -1 -61 -9 -28 -21 -54 -25
-59 -5 -6 -9 -23 -9 -39 l0 -28 68 6 c70 7 97 0 167 -44 54 -34 77 -31 100 14
12 22 35 49 53 60 37 24 40 35 9 35 -13 0 -28 5 -35 12 -7 7 -12 9 -12 6 0 -4
-16 0 -35 8 -19 7 -46 14 -60 14 -15 0 -24 4 -21 8 3 4 -10 8 -28 9 -34 1 -98
28 -153 64 -18 11 -33 18 -33 14z"/>
<path d="M861 519 c-52 -10 -67 -21 -91 -69 -14 -28 -17 -45 -10 -73 7 -33 5
-39 -17 -57 -23 -18 -27 -18 -46 -5 -12 8 -28 15 -37 14 -13 0 -13 -1 0 -6 19
-8 44 -33 32 -33 -5 0 -25 6 -43 14 -49 20 -159 26 -159 9 0 -7 -4 -13 -9 -13
-14 0 -23 52 -12 63 6 6 11 19 11 29 0 14 -8 18 -34 18 -35 0 -66 -23 -46 -35
5 -3 10 -17 10 -30 0 -47 -65 -57 -175 -28 -60 16 -65 16 -82 0 -12 -10 -28
-14 -43 -11 l-25 5 25 -15 c25 -16 25 -16 -15 -11 -22 3 -53 2 -70 -3 -29 -9
-28 -9 20 -16 28 -4 75 -19 105 -32 30 -14 44 -22 30 -19 -14 3 -45 9 -70 11
-39 5 -42 4 -25 -8 19 -12 19 -13 -9 -18 -16 -3 -34 -13 -40 -23 -9 -14 -7
-21 12 -35 23 -18 21 -35 -3 -26 -14 6 -27 -19 -19 -39 6 -18 59 -48 68 -40 4
4 4 0 0 -10 -4 -11 -1 -17 9 -17 8 0 29 -3 46 -6 42 -9 39 6 -9 42 -38 28 -50
44 -32 44 4 0 29 -20 54 -45 l47 -45 278 0 278 1 67 152 c37 84 79 181 93 217
15 36 34 83 45 105 25 56 2 66 -109 44z m-94 -237 c-22 -10 -35 -21 -30 -26 4
-5 3 -6 -4 -2 -9 5 -13 0 -13 -14 0 -15 -5 -20 -15 -16 -8 3 -21 -4 -31 -17
l-16 -22 7 25 c4 14 15 31 24 37 9 7 27 22 41 33 14 10 36 19 50 19 22 0 20
-3 -13 -17z m7 -37 c-4 -8 -11 -15 -16 -15 -6 0 -5 6 2 15 7 8 14 15 16 15 2
0 1 -7 -2 -15z m-274 -77 c0 -4 -4 -8 -9 -8 -6 0 -12 4 -15 8 -3 5 1 9 9 9 8
0 15 -4 15 -9z"/>
<path d="M0 125 c0 -8 5 -15 10 -15 6 0 10 7 10 15 0 8 -4 15 -10 15 -5 0 -10
-7 -10 -15z"/>
<path d="M38 3 c7 -3 16 -2 19 1 4 3 -2 6 -13 5 -11 0 -14 -3 -6 -6z"/>
</g>
</svg>
